<?xml version="1.0" encoding="utf-8"?>
<!-- Generator: Adobe Illustrator 24.0.2, SVG Export Plug-In . SVG Version: 6.00 Build 0)  -->
<svg version="1.0" id="圖層_1" xmlns="http://www.w3.org/2000/svg" xmlns:xlink="http://www.w3.org/1999/xlink" x="0px" y="0px"
	 viewBox="0 0 133.2 51" style="enable-background:new 0 0 133.2 51;" xml:space="preserve">
<style type="text/css">
	.st0{fill:#DF7D59;}
	.st1{fill:#50A2C7;}
	.st2{fill:#B55170;}
</style>
<polygon class="st0" points="41.4,46.7 2.6,46.7 26.9,9.9 2.8,9.9 2.8,2.4 41.4,2.4 17.1,39.3 41.4,39.3 "/>
<polygon class="st1" points="81.9,2.4 46.6,2.4 46.6,9.9 60.5,9.9 60.5,46.7 68,46.7 68,9.9 81.9,9.9 "/>
<path class="st2" d="M107.5,2.4c-12.4,0-22.7,10.1-22.7,22.8s10.1,22.7,22.7,22.7c5.9,0,11.1-2.3,15.3-5.9v5h7.4V25.2
	C130.4,12.5,120.3,2.4,107.5,2.4z M107.5,40.2c-8.4,0-15.3-6.9-15.3-15.3s6.9-15.3,15.3-15.3s15.3,6.9,15.3,15.3
	C123,33.4,116.1,40.2,107.5,40.2z"/>
</svg>
